<?xml version="1.0" encoding="UTF-8"?>
<svg width="512px" height="169px" viewBox="0 0 512 169" version="1.1" xmlns="http://www.w3.org/2000/svg" xmlns:xlink="http://www.w3.org/1999/xlink">
    <title>appstore</title>
    <g id="Page-1" stroke="none" stroke-width="1" fill="none" fill-rule="evenodd">
        <g id="app-store-seeklogo.com" transform="translate(0.000000, -644.000000)">
            <g id="appstore" transform="translate(0.000000, 644.138000)">
                <path d="M511.48,144.699 C511.48,157.185 501.359,167.311 488.875,167.311 L22.61,167.311 C10.124,167.311 0,157.185 0,144.699 L0,22.61 C0,10.125 10.124,-4.26325641e-14 22.61,-4.26325641e-14 L488.875,-4.26325641e-14 C501.359,-4.26325641e-14 511.48,10.125 511.48,22.61 L511.48,144.699" id="Fill-31" fill="#1A1919"></path>
                <path d="M44.732,117.384 L90.279,117.384 L90.279,49.299 L44.732,49.299 L44.732,117.384 Z M67.505,132.363 C64.18,132.363 61.485,129.668 61.485,126.339 C61.485,123.013 64.18,120.318 67.505,120.318 C70.834,120.318 73.529,123.013 73.529,126.339 C73.529,129.668 70.834,132.363 67.505,132.363 Z M88.336,28.613 L46.673,28.613 C41.682,28.613 37.632,32.659 37.632,37.654 L37.632,129.957 C37.632,134.953 41.682,139.002 46.673,139.002 L88.336,139.002 C93.332,139.002 97.382,134.953 97.382,129.957 L97.382,37.654 C97.382,32.659 93.332,28.613 88.336,28.613 L88.336,28.613 Z" id="Fill-32" fill="#FFFFFE"></path>
                <path d="M139.499,42.605 L137.075,35.586 C136.568,33.992 136.206,32.547 135.844,31.136 L135.738,31.136 C135.412,32.547 135.014,34.068 134.543,35.548 L132.156,42.605 L139.499,42.605 Z M131.504,45.064 L128.972,52.733 L125.716,52.733 L134,28.347 L137.8,28.347 L146.12,52.733 L142.755,52.733 L140.15,45.064 L131.504,45.064 L131.504,45.064 Z" id="Fill-33" fill="#FFFFFE"></path>
                <path d="M149.377,35.222 L152.813,45.029 C153.394,46.655 153.864,48.104 154.227,49.549 L154.335,49.549 C154.733,48.104 155.237,46.655 155.817,45.029 L159.219,35.222 L162.548,35.222 L155.671,52.733 L152.632,52.733 L145.979,35.222 L149.377,35.222" id="Fill-34" fill="#FFFFFE"></path>
                <path d="M174.087,43.797 C170.613,43.725 166.674,44.34 166.674,47.742 C166.674,49.839 168.046,50.781 169.637,50.781 C171.955,50.781 173.436,49.332 173.944,47.85 C174.052,47.523 174.087,47.162 174.087,46.836 L174.087,43.797 Z M177.199,48.539 C177.199,50.056 177.272,51.537 177.454,52.733 L174.596,52.733 L174.305,50.527 L174.197,50.527 C173.259,51.904 171.339,53.131 168.842,53.131 C165.296,53.131 163.489,50.636 163.489,48.104 C163.489,43.869 167.252,41.554 174.016,41.59 L174.016,41.228 C174.016,39.783 173.617,37.138 170.038,37.179 C168.372,37.179 166.674,37.646 165.442,38.479 L164.716,36.341 C166.166,35.439 168.3,34.825 170.505,34.825 C175.899,34.825 177.199,38.479 177.199,41.99 L177.199,48.539 L177.199,48.539 Z" id="Fill-35" fill="#FFFFFE"></path>
                <path d="M182.119,52.733 L185.303,52.733 L185.303,35.222 L182.119,35.222 L182.119,52.733 Z M183.635,32.003 C182.444,32.003 181.647,31.064 181.647,29.941 C181.647,28.819 182.48,27.917 183.709,27.917 C184.941,27.917 185.737,28.819 185.737,29.941 C185.737,31.064 184.941,32.003 183.676,32.003 L183.635,32.003 L183.635,32.003 Z" id="Fill-36" fill="#FFFFFE"></path>
                <polygon id="Fill-37" fill="#FFFFFE" points="190.402 52.733 193.586 52.733 193.586 27.048 190.402 27.048"></polygon>
                <path d="M207.913,43.797 C204.439,43.725 200.494,44.34 200.494,47.742 C200.494,49.839 201.87,50.781 203.461,50.781 C205.779,50.781 207.261,49.332 207.768,47.85 C207.877,47.523 207.913,47.162 207.913,46.836 L207.913,43.797 Z M211.024,48.539 C211.024,50.056 211.097,51.537 211.277,52.733 L208.416,52.733 L208.127,50.527 L208.021,50.527 C207.08,51.904 205.163,53.131 202.664,53.131 C199.122,53.131 197.311,50.636 197.311,48.104 C197.311,43.869 201.074,41.554 207.841,41.59 L207.841,41.228 C207.841,39.783 207.442,37.138 203.858,37.179 C202.197,37.179 200.494,37.646 199.268,38.479 L198.541,36.341 C199.988,35.439 202.125,34.825 204.331,34.825 C209.721,34.825 211.024,38.479 211.024,41.99 L211.024,48.539 L211.024,48.539 Z" id="Fill-38" fill="#FFFFFE"></path>
                <path d="M219.125,45.716 C219.125,46.111 219.161,46.509 219.237,46.873 C219.849,49.078 221.732,50.599 224.01,50.599 C227.376,50.599 229.328,47.886 229.328,43.869 C229.328,40.324 227.52,37.324 224.12,37.324 C221.95,37.324 219.92,38.841 219.306,41.228 C219.199,41.628 219.125,42.062 219.125,42.568 L219.125,45.716 Z M215.94,27.048 L219.125,27.048 L219.125,38.008 L219.199,38.008 C220.319,36.056 222.344,34.825 225.165,34.825 C229.509,34.825 232.548,38.443 232.548,43.725 C232.548,50.02 228.567,53.131 224.662,53.131 C222.131,53.131 220.137,52.154 218.802,49.839 L218.725,49.839 L218.544,52.733 L215.799,52.733 C215.907,51.537 215.94,49.767 215.94,48.213 L215.94,27.048 L215.94,27.048 Z" id="Fill-39" fill="#FFFFFE"></path>
                <polygon id="Fill-40" fill="#FFFFFE" points="236.345 52.733 239.527 52.733 239.527 27.048 236.345 27.048"></polygon>
                <path d="M255.734,42.243 C255.77,40.252 254.9,37.066 251.354,37.066 C248.104,37.066 246.726,40.033 246.472,42.243 L255.734,42.243 Z M246.437,44.521 C246.508,48.828 249.221,50.599 252.406,50.599 C254.688,50.599 256.097,50.201 257.255,49.73 L257.832,51.972 C256.713,52.479 254.757,53.095 251.972,53.095 C246.618,53.095 243.361,49.513 243.361,44.268 C243.361,38.95 246.508,34.789 251.613,34.789 C257.324,34.789 258.81,39.82 258.81,43.036 C258.81,43.688 258.773,44.195 258.701,44.557 L246.437,44.521 L246.437,44.521 Z" id="Fill-41" fill="#FFFFFE"></path>
                <path d="M277.294,50.745 C280.333,50.745 282.611,47.886 282.611,43.906 C282.611,40.939 281.13,37.212 277.367,37.212 C273.638,37.212 272.013,40.685 272.013,44.014 C272.013,47.85 274.183,50.745 277.259,50.745 L277.294,50.745 Z M277.187,53.131 C272.484,53.131 268.792,49.658 268.792,44.123 C268.792,38.261 272.666,34.825 277.476,34.825 C282.503,34.825 285.904,38.479 285.904,43.797 C285.904,50.31 281.38,53.131 277.222,53.131 L277.187,53.131 L277.187,53.131 Z" id="Fill-42" fill="#FFFFFE"></path>
                <path d="M289.742,39.965 C289.742,38.117 289.701,36.672 289.591,35.222 L292.416,35.222 L292.595,38.08 L292.667,38.08 C293.537,36.455 295.562,34.825 298.455,34.825 C300.878,34.825 304.648,36.273 304.648,42.279 L304.648,52.733 L301.458,52.733 L301.458,42.637 C301.458,39.82 300.412,37.429 297.406,37.429 C295.343,37.429 293.718,38.914 293.138,40.685 C292.994,41.084 292.921,41.664 292.921,42.171 L292.921,52.733 L289.742,52.733 L289.742,39.965" id="Fill-43" fill="#FFFFFE"></path>
                <path d="M320.958,31.028 L320.958,35.222 L325.513,35.222 L325.513,37.646 L320.958,37.646 L320.958,47.09 C320.958,49.259 321.574,50.491 323.343,50.491 C324.214,50.491 324.722,50.42 325.193,50.273 L325.333,52.697 C324.722,52.914 323.744,53.131 322.515,53.131 C321.027,53.131 319.833,52.625 319.074,51.796 C318.208,50.816 317.845,49.259 317.845,47.198 L317.845,37.646 L315.134,37.646 L315.134,35.222 L317.845,35.222 L317.845,32.003 L320.958,31.028" id="Fill-44" fill="#FFFFFE"></path>
                <path d="M328.916,27.048 L332.099,27.048 L332.099,37.972 L332.169,37.972 C332.675,37.066 333.472,36.238 334.451,35.73 C335.392,35.15 336.511,34.825 337.708,34.825 C340.058,34.825 343.818,36.273 343.818,42.315 L343.818,52.733 L340.638,52.733 L340.638,42.677 C340.638,39.82 339.587,37.465 336.583,37.465 C334.523,37.465 332.931,38.914 332.318,40.649 C332.136,41.084 332.099,41.554 332.099,42.171 L332.099,52.733 L328.916,52.733 L328.916,27.048" id="Fill-45" fill="#FFFFFE"></path>
                <path d="M359.919,42.243 C359.951,40.252 359.085,37.066 355.541,37.066 C352.287,37.066 350.906,40.033 350.656,42.243 L359.919,42.243 Z M350.621,44.521 C350.693,48.828 353.406,50.599 356.589,50.599 C358.869,50.599 360.281,50.201 361.441,49.73 L362.017,51.972 C360.894,52.479 358.941,53.095 356.154,53.095 C350.802,53.095 347.544,49.513 347.544,44.268 C347.544,38.95 350.693,34.789 355.794,34.789 C361.509,34.789 362.996,39.82 362.996,43.036 C362.996,43.688 362.958,44.195 362.886,44.557 L350.621,44.521 L350.621,44.521 Z" id="Fill-46" fill="#FFFFFE"></path>
                <path d="M374.242,52.733 L377.425,52.733 L377.425,35.222 L374.242,35.222 L374.242,52.733 Z M375.765,32.003 C374.568,32.003 373.771,31.064 373.771,29.941 C373.771,28.819 374.603,27.917 375.835,27.917 C377.064,27.917 377.861,28.819 377.861,29.941 C377.861,31.064 377.064,32.003 375.794,32.003 L375.765,32.003 L375.765,32.003 Z" id="Fill-47" fill="#FFFFFE"></path>
                <path d="M385.783,40.395 C386.468,40.577 387.376,40.649 388.388,40.649 C392.222,40.649 394.501,38.769 394.501,35.476 C394.501,32.22 392.222,30.666 388.75,30.666 C387.376,30.666 386.328,30.808 385.783,30.92 L385.783,40.395 Z M382.634,28.673 C384.152,28.387 386.144,28.168 388.677,28.168 C391.787,28.168 394.068,28.89 395.511,30.196 C396.851,31.351 397.685,33.126 397.685,35.296 C397.685,37.502 397.033,39.24 395.765,40.504 C394.103,42.279 391.388,43.181 388.314,43.181 C387.376,43.181 386.507,43.144 385.783,42.967 L385.783,52.733 L382.634,52.733 L382.634,28.673 L382.634,28.673 Z" id="Fill-48" fill="#FFFFFE"></path>
                <path d="M401.412,27.048 L404.597,27.048 L404.597,37.972 L404.669,37.972 C405.175,37.066 405.972,36.238 406.947,35.73 C407.89,35.15 409.013,34.825 410.205,34.825 C412.556,34.825 416.318,36.273 416.318,42.315 L416.318,52.733 L413.136,52.733 L413.136,42.677 C413.136,39.82 412.085,37.465 409.082,37.465 C407.023,37.465 405.431,38.914 404.814,40.649 C404.632,41.084 404.597,41.554 404.597,42.171 L404.597,52.733 L401.412,52.733 L401.412,27.048" id="Fill-49" fill="#FFFFFE"></path>
                <path d="M428.548,50.745 C431.582,50.745 433.865,47.886 433.865,43.906 C433.865,40.939 432.382,37.212 428.617,37.212 C424.892,37.212 423.261,40.685 423.261,44.014 C423.261,47.85 425.431,50.745 428.507,50.745 L428.548,50.745 Z M428.437,53.131 C423.734,53.131 420.042,49.658 420.042,44.123 C420.042,38.261 423.916,34.825 428.728,34.825 C433.755,34.825 437.154,38.479 437.154,43.797 C437.154,50.31 432.632,53.131 428.474,53.131 L428.437,53.131 L428.437,53.131 Z" id="Fill-50" fill="#FFFFFE"></path>
                <path d="M440.99,39.965 C440.99,38.117 440.953,36.672 440.845,35.222 L443.667,35.222 L443.847,38.08 L443.921,38.08 C444.791,36.455 446.816,34.825 449.708,34.825 C452.132,34.825 455.892,36.273 455.892,42.279 L455.892,52.733 L452.712,52.733 L452.712,42.637 C452.712,39.82 451.662,37.429 448.658,37.429 C446.597,37.429 444.97,38.914 444.392,40.685 C444.246,41.084 444.169,41.664 444.169,42.171 L444.169,52.733 L440.99,52.733 L440.99,39.965" id="Fill-51" fill="#FFFFFE"></path>
                <path d="M471.994,42.243 C472.029,40.252 471.16,37.066 467.615,37.066 C464.357,37.066 462.984,40.033 462.73,42.243 L471.994,42.243 Z M462.695,44.521 C462.767,48.828 465.482,50.599 468.666,50.599 C470.943,50.599 472.355,50.201 473.511,49.73 L474.091,51.972 C472.966,52.479 471.015,53.095 468.23,53.095 C462.876,53.095 459.619,49.513 459.619,44.268 C459.619,38.95 462.767,34.789 467.867,34.789 C473.583,34.789 475.068,39.82 475.068,43.036 C475.068,43.688 475.033,44.195 474.96,44.557 L462.695,44.521 L462.695,44.521 Z" id="Fill-52" fill="#FFFFFE"></path>
                <path d="M151.583,79.632 C152.307,82.451 153.088,85.378 154.093,88.54 L159.874,105.282 L143.421,105.282 L149.123,88.431 C149.991,85.699 150.814,82.748 151.583,79.632 Z M146.493,69.251 L125.042,132.394 L134.865,132.394 L141.27,113.006 L162.04,113.006 L168.625,132.394 L178.72,132.394 L157.176,69.251 L146.493,69.251 L146.493,69.251 Z" id="Fill-53" fill="#FFFFFE"></path>
                <path d="M204.099,93.528 C212.615,93.528 216.426,101.418 216.426,109.234 C216.426,119.318 211.563,125.582 203.736,125.582 C198.393,125.582 193.769,121.945 192.482,116.717 C192.261,115.906 192.141,114.834 192.141,113.624 L192.141,105.941 C192.141,105.246 192.297,104.402 192.446,103.584 C192.493,103.322 192.544,103.061 192.583,102.807 C194.007,97.341 198.737,93.528 204.099,93.528 Z M206.479,85.62 C199.972,85.62 194.76,88.131 191.291,92.905 L190.91,86.624 L182.172,86.624 L182.224,87.427 C182.48,91.34 182.589,95.646 182.589,101.83 L182.589,150.5 L192.141,150.5 L192.141,127.787 C195.105,131.334 199.839,133.398 205.201,133.398 C210.785,133.398 215.929,131.211 219.678,127.244 C223.862,122.821 226.07,116.464 226.07,108.868 C226.07,102.156 224.153,96.353 220.519,92.09 C216.96,87.917 211.977,85.62 206.479,85.62 L206.479,85.62 Z" id="Fill-54" fill="#FFFFFE"></path>
                <path d="M253.297,93.528 C261.81,93.528 265.621,101.418 265.621,109.234 C265.621,119.318 260.755,125.582 252.931,125.582 C247.589,125.582 242.962,121.945 241.676,116.717 C241.455,115.906 241.34,114.834 241.34,113.624 L241.34,105.941 C241.34,105.242 241.491,104.394 241.645,103.576 C241.691,103.318 241.738,103.061 241.782,102.807 C243.202,97.341 247.933,93.528 253.297,93.528 Z M255.674,85.62 C249.168,85.62 243.956,88.131 240.484,92.905 L240.104,86.624 L231.368,86.624 L231.417,87.427 C231.675,91.343 231.784,95.646 231.784,101.83 L231.784,150.5 L241.34,150.5 L241.34,127.787 C244.302,131.334 249.033,133.398 254.394,133.398 C259.98,133.398 265.123,131.211 268.876,127.244 C273.056,122.821 275.265,116.464 275.265,108.868 C275.265,102.156 273.345,96.353 269.712,92.09 C266.156,87.917 261.171,85.62 255.674,85.62 L255.674,85.62 Z" id="Fill-55" fill="#FFFFFE"></path>
                <path d="M317.304,96.006 C308.388,92.552 305.531,89.837 305.531,84.82 C305.531,80.595 308.888,76.336 316.39,76.336 C322.58,76.336 326.541,78.488 327.605,79.15 L328.416,79.65 L331.111,71.677 L330.578,71.366 C328.978,70.427 324.417,68.244 316.666,68.244 C304.482,68.244 295.974,75.437 295.974,85.732 C295.974,94.035 301.302,99.838 312.744,103.996 C320.849,107.027 323.867,110.131 323.867,115.453 C323.867,121.476 319.212,125.215 311.724,125.215 C306.847,125.215 301.828,123.792 297.955,121.31 L297.126,120.778 L294.562,128.935 L295.033,129.248 C298.638,131.656 305.427,133.398 311.177,133.398 C327.597,133.398 333.419,123.386 333.419,114.812 C333.419,105.974 328.751,100.522 317.304,96.006" id="Fill-56" fill="#FFFFFE"></path>
                <path d="M350.617,75.746 L341.246,78.687 L341.246,86.624 L334.388,86.624 L334.388,94.259 L341.246,94.259 L341.246,117.648 C341.246,123.302 342.328,127.265 344.554,129.769 C346.689,132.109 349.972,133.398 353.796,133.398 C357.41,133.398 359.974,132.685 361.181,132.257 L361.716,132.068 L361.259,124.419 L360.343,124.701 C359.136,125.071 357.894,125.215 355.9,125.215 C352.197,125.215 350.617,122.871 350.617,117.373 L350.617,94.259 L362.14,94.259 L362.14,86.624 L350.617,86.624 L350.617,75.746" id="Fill-57" fill="#FFFFFE"></path>
                <path d="M385.541,93.162 C394.136,93.162 398.046,101.54 398.046,109.328 C398.046,118.905 392.708,125.856 385.359,125.856 L385.267,125.856 C378.021,125.856 372.761,119.021 372.761,109.603 C372.761,101.421 376.712,93.162 385.541,93.162 Z M385.816,85.62 C372.449,85.62 363.115,95.595 363.115,109.875 C363.115,123.726 372.148,133.398 385.083,133.398 L385.173,133.398 C396.109,133.398 407.875,125.78 407.875,109.052 C407.875,102.25 405.771,96.408 401.787,92.154 C397.779,87.881 392.255,85.62 385.816,85.62 L385.816,85.62 Z" id="Fill-58" fill="#FFFFFE"></path>
                <path d="M437.136,86.062 L436.564,85.917 C435.722,85.707 435.035,85.62 434.187,85.62 C429.189,85.62 424.705,88.562 422.208,93.31 L421.927,86.624 L413.355,86.624 L413.41,87.427 C413.664,91.21 413.771,95.455 413.771,101.185 L413.681,132.394 L423.236,132.394 L423.236,108.046 C423.236,106.72 423.328,105.466 423.498,104.343 C424.578,98.494 428.523,94.715 433.55,94.715 C434.529,94.715 435.298,94.795 436.115,94.875 L437.136,94.98 L437.136,86.062" id="Fill-59" fill="#FFFFFE"></path>
                <path d="M457.978,92.797 C460.888,92.797 463.25,93.697 464.992,95.472 C467.74,98.269 468.222,102.388 468.281,104.365 L446.496,104.365 C447.38,98.848 450.832,92.797 457.978,92.797 Z M458.617,85.529 C445.898,85.529 437.013,95.69 437.013,110.24 C437.013,124.252 445.851,133.307 459.529,133.307 C466.722,133.307 471.726,131.728 474.656,130.406 L475.23,130.146 L473.396,123.028 L472.597,123.349 C469.994,124.408 466.535,125.49 460.626,125.49 C456.476,125.49 446.906,124.121 446.318,111.638 L477.156,111.73 L477.279,111.121 C477.474,110.15 477.568,108.842 477.568,107.132 C477.568,97.168 472.605,85.529 458.617,85.529 L458.617,85.529 Z" id="Fill-60" fill="#FFFFFE"></path>
            </g>
        </g>
    </g>
</svg>