<?xml version="1.0" encoding="UTF-8"?>
<svg width="129px" height="82px" viewBox="0 0 129 82" version="1.1" xmlns="http://www.w3.org/2000/svg" xmlns:xlink="http://www.w3.org/1999/xlink">
    <title>logo</title>
    <g id="Wallet" stroke="none" stroke-width="1" fill="none" fill-rule="evenodd">
        <g id="Desktop-Copy" transform="translate(-303.000000, -690.000000)" fill-rule="nonzero">
            <g id="logo" transform="translate(303.000000, 690.000000)">
                <path d="M51.0381104,0 C59.5644187,0 65.2284185,1.92114286 68.0301099,5.76342857 C69.2311401,7.41054119 69.9894061,9.45662048 70.3049079,11.9016665 L78.9757189,11.9014019 L81.724457,0.749714286 L107.854652,0.749714286 C114.616896,0.749714286 119.295944,2.34285714 121.891796,5.52914286 C124.452568,8.67237066 125.036815,13.3051753 123.644537,19.4275567 L123.586207,19.68 L116.062507,50.949021 L129,50.9493333 L125.689545,64.3817143 L112.338591,64.381794 C110.535015,68.9132354 108.175315,72.5368279 105.259494,75.2525714 C101.013613,79.2071083 95.1287467,81.206105 87.6048952,81.2495614 L87.3534932,81.2502857 L61.8848222,81.2502857 L75.6652637,25.3337829 L49.6823647,25.3340952 L50.0596796,23.8031162 L49.9125973,23.8034286 L51.165019,18.2742857 C51.4267759,17.2121905 51.2855041,16.3687619 50.7412035,15.744 C50.1969029,15.1192381 49.29998,14.8068571 48.0504349,14.8068571 C46.5803817,14.8068571 45.3931558,15.1504762 44.4887571,15.8377143 C43.5843584,16.5249524 42.9858831,17.4620952 42.6933312,18.6491429 C42.0574159,21.2294095 43.1049195,23.9002927 45.835842,26.6617924 L45.9761533,26.8022857 L54.7843169,35.7988571 C56.8333961,37.9230476 58.4684049,39.9379048 59.6893433,41.8434286 C60.9102817,43.7489524 61.7157721,45.9980952 62.1058145,48.5908571 C62.4958569,51.183619 62.2520503,54.2605714 61.3743947,57.8217143 C59.4189165,65.7561905 56.2279737,71.7695238 51.8015661,75.8617143 C47.3751584,79.9539048 41.2295625,82 33.3647781,82 C24.7649671,82 19.000519,80.1881905 16.0714339,76.5645714 C13.834486,73.7972067 13.0309563,69.73627 13.6608448,64.3817613 L0,64.3817143 L3.31045517,50.9493333 L35.2841113,50.9493333 L32.7415046,61.2667734 C31.7856592,65.2176864 32.8055522,67.1931429 35.8011836,67.1931429 C37.4917448,67.1931429 38.7717202,66.7714286 39.6411099,65.928 C40.5104996,65.0845714 41.1915539,63.6632381 41.6842728,61.664 C42.3309664,59.04 42.498515,56.8689524 42.1869188,55.1508571 C41.8753225,53.4327619 41.2923053,51.9958095 40.4378673,50.84 L40.2651751,50.6108476 C39.4573147,49.5576048 38.1115938,48.0405279 36.2280126,46.0596169 L35.6468024,45.4514286 L29.1971261,38.5165714 C24.1692847,33.2685714 22.4406347,27.4582857 24.0111763,21.0857143 C25.7048975,14.2133333 28.8503774,8.98095238 33.4476159,5.38857143 C38.0448544,1.79619048 43.9083525,0 51.0381104,0 Z M98.7213443,15 L96.6598557,15 L84,67 L87.2549821,67 C90.6086889,67 92.6473529,65.606949 93.3709742,62.8208471 L93.3999718,62.7055655 L103.468762,21.3482944 C103.908182,19.5433872 104.074999,18.1897068 103.969211,17.2872531 C103.863423,16.3847995 103.414412,15.7779773 102.622179,15.4667864 C101.85824,15.1667094 100.621897,15.0113124 98.9131492,15.0005954 L98.7213443,15 Z" fill="#69D0F0"></path>
                <path d="M51.0381104,0 C59.5644187,0 65.2284185,1.92114286 68.0301099,5.76342857 C69.2311401,7.41054119 69.9894061,9.45662048 70.3049079,11.9016665 L78.9757189,11.9014019 L81.724457,0.749714286 L107.854652,0.749714286 C114.616896,0.749714286 119.295944,2.34285714 121.891796,5.52914286 C124.452568,8.67237066 125.036815,13.3051753 123.644537,19.4275567 L123.586207,19.68 L116.062507,50.949021 L119.740448,50.949 L94.3824478,58.666 L103.468762,21.3482944 C103.908182,19.5433872 104.074999,18.1897068 103.969211,17.2872531 C103.863423,16.3847995 103.414412,15.7779773 102.622179,15.4667864 C101.85824,15.1667094 100.621897,15.0113124 98.9131492,15.0005954 L96.6598557,15 L85.3594478,61.412 L67,67 L65.5494478,66.379 L75.6652637,25.3337829 L49.6823647,25.3340952 L50.0596796,23.8031162 L49.9125973,23.8034286 L51.165019,18.2742857 C51.4267759,17.2121905 51.2855041,16.3687619 50.7412035,15.744 C50.1969029,15.1192381 49.29998,14.8068571 48.0504349,14.8068571 C46.5803817,14.8068571 45.3931558,15.1504762 44.4887571,15.8377143 C43.5843584,16.5249524 42.9858831,17.4620952 42.6933312,18.6491429 C42.0574159,21.2294095 43.1049195,23.9002927 45.835842,26.6617924 L45.9761533,26.8022857 L54.7843169,35.7988571 C56.8333961,37.9230476 58.4684049,39.9379048 59.6893433,41.8434286 C60.9102817,43.7489524 61.7157721,45.9980952 62.1058145,48.5908571 C62.4958569,51.183619 62.2520503,54.2605714 61.3743947,57.8217143 C60.8488857,59.9540002 60.2341521,61.9475422 59.5301939,63.8023402 L42.3272426,56.4378468 C42.3069556,55.9838106 42.260181,55.5548141 42.1869188,55.1508571 C41.8753225,53.4327619 41.2923053,51.9958095 40.4378673,50.84 L40.2651751,50.6108476 C39.4573147,49.5576048 38.1115938,48.0405279 36.2280126,46.0596169 L35.6468024,45.4514286 L29.1971261,38.5165714 C24.1692847,33.2685714 22.4406347,27.4582857 24.0111763,21.0857143 C25.7048975,14.2133333 28.8503774,8.98095238 33.4476159,5.38857143 C38.0448544,1.79619048 43.9083525,0 51.0381104,0 Z M35.2841113,50.9493333 L34.7324478,53.185 L29.5094478,50.949 L35.2841113,50.9493333 Z" id="Combined-Shape" fill="#9AE7FF"></path>
                <path d="M51.0381104,0 C59.5644187,0 65.2284185,1.92114286 68.0301099,5.76342857 C69.2311401,7.41054119 69.9894061,9.45662048 70.3049079,11.9016665 L78.9757189,11.9014019 L81.724457,0.749714286 L107.854652,0.749714286 C114.616896,0.749714286 119.295944,2.34285714 121.891796,5.52914286 C124.452568,8.67237066 125.036815,13.3051753 123.644537,19.4275567 L123.586207,19.68 L121.217448,29.523 L100.193448,34.801 L103.468762,21.3482944 C103.908182,19.5433872 104.074999,18.1897068 103.969211,17.2872531 C103.863423,16.3847995 103.414412,15.7779773 102.622179,15.4667864 C101.85824,15.1667094 100.621897,15.0113124 98.9131492,15.0005954 L96.6598557,15 L91.2944478,37.035 L75.5,41 L72.0784478,39.883 L75.6652637,25.3337829 L49.6823647,25.3340952 L50.0596796,23.8031162 L49.9125973,23.8034286 L51.165019,18.2742857 C51.4267759,17.2121905 51.2855041,16.3687619 50.7412035,15.744 C50.1969029,15.1192381 49.29998,14.8068571 48.0504349,14.8068571 C46.5803817,14.8068571 45.3931558,15.1504762 44.4887571,15.8377143 C43.5843584,16.5249524 42.9858831,17.4620952 42.6933312,18.6491429 C42.0574159,21.2294095 43.1049195,23.9002927 45.835842,26.6617924 L45.9761533,26.8022857 L52.5394478,33.506 L25.9920597,24.8413494 L23.451018,25.6794437 C23.4387173,24.1821198 23.6254367,22.6508767 24.0111763,21.0857143 C25.7048975,14.2133333 28.8503774,8.98095238 33.4476159,5.38857143 C38.0448544,1.79619048 43.9083525,0 51.0381104,0 Z" id="Combined-Shape" fill="#D7F6FF"></path>
            </g>
        </g>
    </g>
</svg>