<?xml version="1.0" encoding="UTF-8"?>
<svg width="1440px" height="1024px" viewBox="0 0 1440 1024" version="1.1" xmlns="http://www.w3.org/2000/svg" xmlns:xlink="http://www.w3.org/1999/xlink">
    <!-- Generator: Sketch 63 (92445) - https://sketch.com -->
    <title>login_background</title>
    <desc>Created with Sketch.</desc>
    <g id="login_background" stroke="none" stroke-width="1" fill="none" fill-rule="evenodd" fill-opacity="0.1">
        <path d="M1083.07039,77.8385477 L1083.72877,78.4490118 L1335.93276,315.750925 C1347.86154,326.974862 1354.72739,342.543532 1355,358.896876 L1355,806.096576 C1355,826.838948 1344.39469,846.115103 1326.93513,857.218268 L1326.12445,857.724894 L1170.88355,953.051482 C1161.35469,958.902737 1150.39256,962 1139.2121,962 C1106.10731,962 1079.20789,935.418538 1078.67321,902.424913 L1078.6651,901.423164 L1078.6651,471.682078 C1078.6651,466.943584 1076.99976,462.363585 1073.97269,458.737808 L1073.53102,458.226418 L819.040754,173.334382 C818.762025,173.022355 818.473668,172.719074 818.176101,172.424976 C810.390577,164.730222 797.930962,164.665616 790.066624,172.174496 L789.634503,172.599447 L507.189011,458.658436 C503.612793,462.280407 501.541901,467.113853 501.375535,472.186152 L501.364669,472.849031 L501.364669,900.20362 C501.364669,904.029863 502.451261,907.777356 504.497881,911.009593 C510.358267,920.264929 522.496185,923.128871 531.84931,917.567163 L532.347654,917.261142 L680.232548,823.529618 C685.891458,819.942921 689.390719,813.790101 689.603897,807.119214 L689.614231,806.472096 L689.614231,416.918748 C689.614231,402.561851 694.710418,388.683307 703.975125,377.748675 L704.643966,376.97267 L758.585986,315.447502 C755.991923,309.297512 754.557779,302.538034 754.557779,295.443428 C754.557779,267.006115 777.599423,243.953118 806.022731,243.953118 C834.44604,243.953118 857.487684,267.006115 857.487684,295.443428 C857.487684,323.880741 834.44604,346.933738 806.022731,346.933738 C799.54557,346.933738 793.347879,345.736591 787.638648,343.551387 L734.988811,403.603389 C731.913261,407.111333 730.151764,411.570843 729.990976,416.220041 L729.978899,416.918748 L729.978899,806.472096 C729.978899,826.907924 719.682493,845.942969 702.637752,857.126222 L701.83385,857.644662 L553.948957,951.376187 C525.701047,969.280109 488.294743,960.883367 470.399638,932.621539 C464.464441,923.248053 461.220519,912.43013 461.010852,901.350657 L461,900.20362 L461,472.849031 C461,457.243305 467.019054,442.253189 477.779748,430.991015 L478.473028,430.277245 L760.91852,144.218257 C784.418688,120.417436 822.754215,120.183096 846.543314,143.694844 C847.138448,144.283039 847.721302,144.88348 848.291504,145.495776 L849.137273,146.423061 L1103.62754,431.315097 C1113.32117,442.166743 1118.77824,456.138148 1119.02128,470.667527 L1119.02977,471.682078 L1119.02977,901.423164 C1119.02977,912.575052 1128.0657,921.615443 1139.2121,921.615443 C1142.69047,921.615443 1146.10543,920.716089 1149.12774,919.010413 L1149.76925,918.632604 L1305.01015,823.306016 C1310.80939,819.744957 1314.41229,813.509405 1314.62533,806.73335 L1314.63533,806.096576 L1314.63533,359.87899 C1314.63533,354.531478 1312.51569,349.412001 1308.75782,345.634723 L1308.27959,345.169635 L1056.07559,107.867722 C1048.94765,101.160948 1038.06655,100.552683 1030.24817,106.342206 L1029.76357,106.712384 L1008.75175,123.264291 C1010.13224,127.916257 1010.87342,132.843357 1010.87342,137.943655 C1010.87342,166.380968 987.83178,189.433965 959.408472,189.433965 C930.985164,189.433965 907.943519,166.380968 907.943519,137.943655 C907.943519,109.506342 930.985164,86.4533446 959.408472,86.4533446 C967.905588,86.4533446 975.921742,88.5136007 982.985109,92.1620555 L1004.79271,74.9829979 C1028.10118,56.6212744 1061.22918,57.8820444 1083.07039,77.8385477 Z" id="Path" fill="#979797" fill-rule="nonzero"></path>
    </g>
</svg>