<?xml version="1.0" encoding="UTF-8"?>
<svg width="200px" height="200px" viewBox="0 0 200 200" version="1.1" xmlns="http://www.w3.org/2000/svg" xmlns:xlink="http://www.w3.org/1999/xlink">
    <!-- Generator: Sketch 63 (92445) - https://sketch.com -->
    <title>logo</title>
    <desc>Created with Sketch.</desc>
    <g id="logo" stroke="none" stroke-width="1" fill="none" fill-rule="evenodd">
        <path d="M136.890736,11.9266032 C134.172328,9.45179158 130.747796,8.1357191 127.277196,8.00995655 C123.819317,7.88465495 120.316759,8.94081417 117.423134,11.2051303 L114.462029,13.5222064 C113.134904,13.0776828 111.713689,12.8363282 110.235691,12.8363282 C106.579787,12.8363282 103.270814,14.310423 100.875275,16.6911646 C98.4729865,19.0786134 96.9887544,22.3772901 96.9887544,26.0199673 C96.9887544,29.6626445 98.4729865,32.9613212 100.875275,35.34877 C103.270814,37.7295117 106.579787,39.2036065 110.235691,39.2036065 C113.891595,39.2036065 117.200568,37.7295117 119.596108,35.34877 C121.998396,32.9613212 123.482628,29.6626445 123.482628,26.0199673 C123.482628,25.4484272 123.445959,24.885395 123.374914,24.3330402 L126.141955,22.1693338 C126.336722,22.034573 126.566179,21.9758273 126.791027,21.9890196 C127.023966,22.0026866 127.253006,22.0940701 127.434127,22.263353 L177.696209,69.2432828 C177.866371,69.4247738 177.963187,69.6638354 177.963187,69.9138447 L177.961196,158.228141 C177.940623,158.548994 177.76147,158.839351 177.484556,159.008258 L146.035519,178.012832 C145.752157,178.012832 145.494794,177.900087 145.308814,177.715256 C145.129583,177.537132 145.017112,177.291503 145.017112,177.019248 L145.015422,91.8014821 C144.961156,88.1966356 143.602067,84.7283899 141.181129,82.0363102 L89.934993,25.0854659 C86.9703639,22.1375777 83.0808723,20.6766572 79.1997002,20.7002242 C75.3487274,20.7236077 71.5075535,22.2084484 68.5876209,25.1460222 L12.1968201,81.8798154 C9.50477731,84.6688768 8,88.3867 8,92.2568083 L8.00216135,177.031919 C8.04903961,179.78472 8.85742298,182.473556 10.3417653,184.802157 C12.5665602,188.292362 16.0032256,190.557886 19.7631811,191.396271 C23.5191875,192.233776 27.596452,191.646521 31.1049808,189.437591 L60.7285741,170.785149 C64.9860859,168.020307 67.5550829,163.302745 67.5550829,158.240037 L67.5574853,81.1267991 C67.5726018,80.9126445 67.6586452,80.7089515 67.8017946,80.5467652 L77.0339687,70.0868188 C77.8937953,70.2616177 78.7839918,70.3535616 79.6958011,70.3535616 C83.351705,70.3535616 86.6606781,68.8794668 89.0562176,66.4987251 C91.4585058,64.1112763 92.9427379,60.8125996 92.9427379,57.1699224 C92.9427379,53.5272452 91.4585058,50.2285685 89.0562176,47.8411197 C86.6606781,45.460378 83.351705,43.9862832 79.6958011,43.9862832 C76.0398971,43.9862832 72.7309241,45.460378 70.3353846,47.8411197 C67.9330963,50.2285685 66.4488642,53.5272452 66.4488642,57.1699224 C66.4488642,58.2972164 66.5913743,59.3914147 66.8591044,60.4358707 L57.1124252,71.4809511 C54.7932389,74.1901663 53.5182697,77.6333659 53.5182697,81.1950413 L53.5162139,158.303405 C53.4956568,158.618794 53.321828,158.904986 53.051963,159.07489 L23.5559295,177.643315 C23.3223005,177.772758 23.0572268,177.801276 22.8134519,177.74322 C22.565377,177.68414 22.3379776,177.534179 22.1904029,177.302667 C22.0903749,177.145746 22.0368132,176.963896 22.0368132,176.778049 L22.0389751,92.1920388 C22.054749,91.9563945 22.1563588,91.7339702 22.3241694,91.5651458 L78.6048432,34.9469533 C78.7909364,34.7808001 79.0270051,34.6992396 79.2671812,34.7087902 C79.5750321,34.7210318 79.8729253,34.8693155 80.1294929,35.1060062 L130.770509,91.422078 C130.905527,91.5941407 130.980299,91.8063725 130.980299,92.0260109 L130.981914,177.240526 C131.041776,181.33612 132.752659,185.035164 135.485355,187.706426 C138.200815,190.360841 141.92531,191.999994 146.035519,191.999994 C148.81316,191.999994 151.536415,191.235275 153.903675,189.791336 L184.993382,170.826044 C189.354192,168.081317 192,163.304137 192,158.165767 L192,69.6958425 C191.939162,65.6406095 190.229695,61.7775366 187.2521,58.9945571 L136.890736,11.9266032 Z" id="Path-Copy" fill="#F77A6D" fill-rule="nonzero"></path>
    </g>
</svg>